<svg width="795" height="699" viewBox="0 0 795 699" fill="none" xmlns="http://www.w3.org/2000/svg">
<path d="M196.772 518.048C231.644 508.704 251.768 470.733 241.722 433.238C231.675 395.742 195.261 372.921 160.389 382.264C125.517 391.608 105.392 429.579 115.439 467.075C125.486 504.57 161.9 527.392 196.772 518.048Z" fill="#B5FF3F"/>
<path d="M629.973 335.83C632.233 415.109 498.625 477.504 427.578 498.865C339.153 525.475 184.418 537.622 145.829 465.556C105.16 389.599 197.778 228.098 331.981 192.089C466.519 156.04 627.511 250.08 629.927 335.842L629.973 335.83Z" fill="#B5FF3F"/>
<path d="M405.969 491.232C423.333 469.292 370.978 398.928 289.029 334.07C207.081 269.212 126.573 234.42 109.209 256.36C91.8444 278.299 144.2 348.663 226.148 413.521C308.096 478.379 388.605 513.171 405.969 491.232Z" fill="#B5FF3F"/>
<path d="M316.317 466.968C337.331 440.417 310.866 384.465 257.205 341.996C203.545 299.526 143.01 286.621 121.996 313.172C100.982 339.723 127.447 395.675 181.108 438.145C234.768 480.615 295.303 493.519 316.317 466.968Z" fill="#B5FF3F"/>
<path d="M436.682 496.129C476.699 485.406 484.64 385.277 454.417 272.485C424.194 159.693 367.254 76.9488 327.236 87.6714C287.219 98.394 279.279 198.523 309.501 311.315C339.724 424.107 396.665 506.851 436.682 496.129Z" fill="#B5FF3F"/>
<path d="M562.128 334.524C639.075 246.691 675.016 152.328 642.406 123.76C609.796 95.1918 520.982 143.236 444.036 231.069C367.089 318.903 331.147 413.265 363.758 441.834C396.368 470.402 485.181 422.358 562.128 334.524Z" fill="#B5FF3F"/>
<path d="M345.217 365.465C338.56 367.002 335.29 374.354 335.141 380.622C334.911 388.989 341.067 395.545 348.704 397.849C360.59 401.436 373.778 392.91 376.461 380.969C378.098 373.61 376.146 366.323 371.049 360.768C366.906 356.193 360.798 353.875 354.769 353.513C348.74 353.151 342.481 355.619 337.893 359.716C332.04 364.992 330.161 373.108 331.481 380.614C333.106 389.818 341.412 396.095 350.397 396.604C359.382 397.113 367.663 390.198 370.406 381.801C372.202 376.327 370.189 369.55 366.081 365.658L365.881 365.465C360.784 360.651 352.42 359.136 346.288 363.003C342.357 365.49 339.602 369.046 338.334 373.538L339.96 369.642C339.849 369.968 339.668 370.214 339.441 370.473L342.002 367.117C341.775 367.376 341.548 367.635 341.249 367.813L344.645 365.173C344.359 365.398 344.049 365.531 343.692 365.676L347.787 363.985C347.464 364.072 347.095 364.171 346.772 364.257L351.164 363.674C350.829 363.714 350.481 363.708 350.121 363.657L354.336 364.258L353.846 364.092L357.742 365.718L357.275 365.447L360.63 368.009C360.267 367.76 359.95 367.499 359.7 367.121L362.328 370.47C362.091 370.138 361.841 369.76 361.73 369.345L363.408 373.394C363.297 372.979 363.186 372.564 363.074 372.149L363.645 376.494C363.58 376.067 363.607 375.615 363.635 375.162L363.08 379.365C363.184 378.645 363.383 378.097 363.604 377.445L362.012 381.282C362.202 380.885 362.438 380.476 362.699 380.159L360.172 383.456C360.433 383.139 360.706 382.868 360.98 382.597L357.664 385.166C358.156 384.787 358.58 384.525 359.143 384.226L355.14 385.892C355.899 385.589 356.591 385.404 357.4 385.286L353.101 385.845C353.922 385.773 354.663 385.772 355.487 385.897L351.331 385.33C351.913 385.471 352.482 385.566 353.03 385.765L349.238 384.161C349.962 384.461 350.605 384.833 351.273 385.297L348.034 382.803C348.351 383.064 348.61 383.291 348.847 383.623L346.29 380.354C346.669 380.845 346.931 381.269 347.23 381.832L345.589 377.921C345.796 378.509 345.944 379.062 346.059 379.674L345.525 375.467C345.577 375.848 345.538 376.254 345.498 376.66L346.044 372.609C346.005 373.015 345.919 373.433 345.821 373.806C347.073 371.098 347.34 370.433 346.668 371.799C345.486 373.846 349.777 368.643 347.082 370.947L350.272 368.461C349.78 368.84 349.263 369.126 348.747 369.413L352.565 367.797C351.99 368.05 351.483 368.186 350.859 368.254L354.974 367.745C354.349 367.813 353.792 367.765 353.177 367.682L357.124 368.207C355.321 367.75 359.189 369.087 359.214 369.179C359.177 369.041 358.312 368.58 358.09 368.491C356.921 367.816 355.336 367.252 354.09 366.845C352.68 366.382 353.409 366.335 355.97 367.774C353.76 366.537 357.944 369.421 356.805 368.49C353.421 365.64 349.578 364.395 345.251 365.406L345.217 365.465Z" fill="#3E3D4D"/>
<path d="M192.439 279.753C193.358 260.673 212.602 250.029 229.321 259.292C235.354 262.619 240.781 253.354 234.69 249.993C210.793 236.821 182.97 252.531 181.702 279.713C181.378 286.622 192.115 286.662 192.452 279.799L192.439 279.753Z" fill="#3E3D4D"/>
<path d="M306.438 275.16C315.746 257.687 338.729 258.598 347.181 276.304C350.181 282.52 359.402 277.083 356.448 270.855C344.527 245.922 310.075 245.563 297.139 269.791C293.883 275.904 303.182 281.272 306.438 275.16Z" fill="#3E3D4D"/>
<path d="M273.821 485.143L439.061 618.284" stroke="#FFB487" stroke-width="21.3368" stroke-miterlimit="10" stroke-linecap="round"/>
<path d="M245.042 432.348C264.936 427.017 276.742 406.569 271.412 386.675C266.081 366.781 245.632 354.975 225.738 360.305C205.844 365.636 194.038 386.084 199.369 405.978C204.699 425.873 225.148 437.679 245.042 432.348Z" fill="#3E3D4D"/>
<path d="M339.559 424.966C342.241 434.975 336.298 445.267 326.29 447.949C316.281 450.631 306.035 444.676 303.353 434.668C302.525 431.577 302.484 428.474 303.142 425.579C304.654 419.044 309.612 413.563 316.576 411.697C324.694 409.522 332.999 413.031 337.283 419.793C338.294 421.351 339.065 423.121 339.559 424.966V424.966Z" fill="#3E3D4D" stroke="#3E3D4D" stroke-width="8.53473" stroke-miterlimit="10" stroke-linecap="round"/>
<path d="M337.27 419.747C334.47 424.056 329.538 427.602 323.404 429.246C315.563 431.347 307.798 429.671 303.13 425.533C304.641 418.998 309.599 413.518 316.564 411.651C324.681 409.476 332.987 412.985 337.27 419.747V419.747Z" fill="white"/>
<path opacity="0.45" d="M211.89 518.199C271.699 502.173 307.232 440.841 291.254 381.21C275.275 321.579 213.837 286.229 154.028 302.255C94.2184 318.281 58.686 379.613 74.6642 439.245C90.6423 498.876 152.08 534.225 211.89 518.199Z" fill="#B5FFDD"/>
<path d="M208.36 519.787C268.17 503.761 303.664 442.285 287.638 382.475C271.612 322.666 210.135 287.172 150.325 303.198C90.5159 319.224 55.0223 380.701 71.0482 440.51C87.0741 500.32 148.551 535.813 208.36 519.787Z" stroke="#FFB487" stroke-width="12.8021" stroke-miterlimit="10"/>
<path d="M565.883 416.179C562.091 488.182 521.245 560.819 451.99 588.867C427.827 599.049 401.799 603.75 376.027 603.685C351.531 603.773 331.555 584.013 331.421 559.53C331.333 535.035 351.093 515.058 375.576 514.924C399.112 517.714 423.364 516.9 444.376 505.289C479.905 487.711 501.578 447.201 509.136 408.991C516.799 374.311 567.154 380.889 565.837 416.191L565.883 416.179Z" fill="#B5FF3F"/>
</svg>
